<?xml version="1.0" encoding="UTF-8" standalone="no"?>
<!-- Generator: Adobe Illustrator 19.0.0, SVG Export Plug-In . SVG Version: 6.00 Build 0)  -->

<svg
   xmlns:dc="http://purl.org/dc/elements/1.1/"
   xmlns:cc="http://creativecommons.org/ns#"
   xmlns:rdf="http://www.w3.org/1999/02/22-rdf-syntax-ns#"
   xmlns:svg="http://www.w3.org/2000/svg"
   xmlns="http://www.w3.org/2000/svg"
   xmlns:xlink="http://www.w3.org/1999/xlink"
   xmlns:sodipodi="http://sodipodi.sourceforge.net/DTD/sodipodi-0.dtd"
   xmlns:inkscape="http://www.inkscape.org/namespaces/inkscape"
   version="1.1"
   id="Capa_1"
   x="0px"
   y="0px"
   viewBox="0 0 512 512"
   style="enable-background:new 0 0 512 512;"
   xml:space="preserve"
   sodipodi:docname="start.svg"
   inkscape:version="0.92.4 5da689c313, 2019-01-14"><metadata
   id="metadata86"><rdf:RDF><cc:Work
       rdf:about=""><dc:format>image/svg+xml</dc:format><dc:type
         rdf:resource="http://purl.org/dc/dcmitype/StillImage" /><dc:title /></cc:Work></rdf:RDF></metadata><defs
   id="defs84">
	
	

		
		
		
		
		
		
		
		
		
	</defs><sodipodi:namedview
   pagecolor="#ffffff"
   bordercolor="#666666"
   borderopacity="1"
   objecttolerance="10"
   gridtolerance="10"
   guidetolerance="10"
   inkscape:pageopacity="0"
   inkscape:pageshadow="2"
   inkscape:window-width="1366"
   inkscape:window-height="709"
   id="namedview82"
   showgrid="false"
   inkscape:zoom="0.56117865"
   inkscape:cx="-234.12566"
   inkscape:cy="387.44373"
   inkscape:window-x="0"
   inkscape:window-y="0"
   inkscape:window-maximized="1"
   inkscape:current-layer="Capa_1" />
<linearGradient
   id="SVGID_1_"
   gradientUnits="userSpaceOnUse"
   x1="74.980698"
   y1="439.01929"
   x2="437.01929"
   y2="76.980698"
   gradientTransform="matrix(1,0,0,-1,0,514)"
   spreadMethod="pad">
	<stop
   offset="0"
   style="stop-color:#FF8736"
   id="stop2" />
	<stop
   offset="0.224"
   style="stop-color:#FF8137"
   id="stop4" />
	<stop
   offset="0.523"
   style="stop-color:#FF7039"
   id="stop6" />
	<stop
   offset="0.863"
   style="stop-color:#FF543C"
   id="stop8" />
	<stop
   offset="1"
   style="stop-color:#FF473E"
   id="stop10" />
</linearGradient>

<linearGradient
   id="SVGID_2_"
   gradientUnits="userSpaceOnUse"
   x1="251.56"
   y1="257.99939"
   x2="84.75"
   y2="257.99939"
   gradientTransform="matrix(1,0,0,-1,0,514)"
   xlink:href="#SVGID_1_">
	<stop
   offset="0"
   style="stop-color:#29292B"
   id="stop15" />
	<stop
   offset="0.381"
   style="stop-color:#414045"
   id="stop17" />
	<stop
   offset="0.735"
   style="stop-color:#515056"
   id="stop19" />
	<stop
   offset="1"
   style="stop-color:#57555C"
   id="stop21" />
</linearGradient>

<linearGradient
   id="SVGID_3_"
   gradientUnits="userSpaceOnUse"
   x1="190.17"
   y1="257.8808"
   x2="412.04"
   y2="257.8808"
   gradientTransform="matrix(1 0 0 -1 0 514)">
	<stop
   offset="0"
   style="stop-color:#FFFFFF"
   id="stop26" />
	<stop
   offset="1"
   style="stop-color:#D5D9D8"
   id="stop28" />
</linearGradient>

<linearGradient
   id="SVGID_4_"
   gradientUnits="userSpaceOnUse"
   x1="323.92001"
   y1="360.14999"
   x2="93.440002"
   y2="360.14999"
   gradientTransform="matrix(1,0,0,-1,0,514)"
   xlink:href="#SVGID_1_">
	<stop
   offset="0"
   style="stop-color:#29292B"
   id="stop33" />
	<stop
   offset="0.381"
   style="stop-color:#414045"
   id="stop35" />
	<stop
   offset="0.735"
   style="stop-color:#515056"
   id="stop37" />
	<stop
   offset="1"
   style="stop-color:#57555C"
   id="stop39" />
</linearGradient>

<linearGradient
   id="SVGID_5_"
   gradientUnits="userSpaceOnUse"
   x1="190.17"
   y1="155.7"
   x2="412.04"
   y2="155.7"
   gradientTransform="matrix(1 0 0 -1 0 514)">
	<stop
   offset="0"
   style="stop-color:#FFFFFF"
   id="stop44" />
	<stop
   offset="1"
   style="stop-color:#D5D9D8"
   id="stop46" />
</linearGradient>

<g
   id="g51">
</g>
<g
   id="g53">
</g>
<g
   id="g55">
</g>
<g
   id="g57">
</g>
<g
   id="g59">
</g>
<g
   id="g61">
</g>
<g
   id="g63">
</g>
<g
   id="g65">
</g>
<g
   id="g67">
</g>
<g
   id="g69">
</g>
<g
   id="g71">
</g>
<g
   id="g73">
</g>
<g
   id="g75">
</g>
<g
   id="g77">
</g>
<g
   id="g79">
</g>
<g
   id="g523"
   transform="matrix(1.9153157,0,0,1.9153157,-216.76504,-1202.5359)">
			<path
   id="path419"
   d="m 246.834,839.102 c 60.771,0 110.107,11.998 110.107,26.909 0,14.802 -49.336,26.912 -110.107,26.912 -60.772,0 -110.107,-12.11 -110.107,-26.912 0,-14.911 49.336,-26.909 110.107,-26.909 z"
   inkscape:connector-curvature="0"
   style="clip-rule:evenodd;fill:#b3b3b3;fill-rule:evenodd" />
			<path
   id="path421"
   d="m 246.834,630.101 c 5.271,0 9.419,4.149 9.419,6.394 0,2.128 -4.149,3.921 -9.419,3.921 -5.157,0 -9.42,-1.793 -9.42,-3.921 0.001,-2.245 4.263,-6.394 9.42,-6.394 z"
   inkscape:connector-curvature="0"
   style="clip-rule:evenodd;fill:#163d73;fill-rule:evenodd" />
			<path
   id="path423"
   d="m 246.834,632.457 c 5.271,0 9.419,1.793 9.419,4.037 0,2.128 -4.149,3.921 -9.419,3.921 -5.157,0 -9.42,-1.793 -9.42,-3.921 0.001,-2.244 4.263,-4.037 9.42,-4.037 z"
   inkscape:connector-curvature="0"
   style="clip-rule:evenodd;fill:#103261;fill-rule:evenodd" />
			<path
   id="path425"
   d="m 253.449,637.054 v 18.835 c 0,1.009 -0.784,1.797 -1.794,1.797 h -9.529 c -1.122,0 -1.906,-0.788 -1.906,-1.797 v -18.835 c -0.001,-2.916 13.229,-2.916 13.229,0 z"
   inkscape:connector-curvature="0"
   style="clip-rule:evenodd;fill:#163d73;fill-rule:evenodd" />
			<path
   id="path427"
   d="m 252.217,637.838 v 15.247 c 0,0.788 -0.674,1.46 -1.57,1.46 h -3.141 v -18.503 c 2.467,0.112 4.711,0.676 4.711,1.796 z m -6.055,16.707 h -3.141 c -0.896,0 -1.57,-0.672 -1.57,-1.46 v -15.247 c 0,-1.12 2.356,-1.684 4.71,-1.796 v 18.503 z"
   inkscape:connector-curvature="0"
   style="clip-rule:evenodd;fill:#fefefe;fill-rule:evenodd" />
			<path
   id="path429"
   d="m 220.148,658.245 c 4.485,-1.348 8.857,-2.804 13.344,-4.148 4.485,-1.46 8.857,-2.916 13.342,-4.261 4.484,1.345 8.857,2.801 13.342,4.261 4.487,1.345 8.972,2.801 13.344,4.148 0,1.904 0,3.701 0,5.493 -4.373,-1.12 -8.857,-2.244 -13.344,-3.477 -4.373,-1.12 -8.857,-2.24 -13.342,-3.477 -4.485,1.236 -8.857,2.356 -13.342,3.477 -4.487,1.232 -8.859,2.356 -13.344,3.477 0,-1.792 0,-3.589 0,-5.493 z"
   inkscape:connector-curvature="0"
   style="clip-rule:evenodd;fill:#163d73;fill-rule:evenodd" />
			<path
   id="path431"
   d="m 225.419,654.32 c 3.586,-1.124 7.175,-2.244 10.764,-3.364 3.477,-1.12 7.063,-2.244 10.652,-3.364 3.588,1.12 7.175,2.244 10.651,3.364 3.589,1.12 7.177,2.24 10.764,3.364 0,1.568 0,3.025 0,4.485 -3.586,-0.896 -7.175,-1.908 -10.764,-2.805 -3.477,-0.896 -7.063,-1.904 -10.651,-2.805 -3.589,0.9 -7.175,1.908 -10.652,2.805 -3.588,0.896 -7.177,1.908 -10.764,2.805 0,-1.459 0,-2.916 0,-4.485 z"
   inkscape:connector-curvature="0"
   style="clip-rule:evenodd;fill:#163d73;fill-rule:evenodd" />
			<path
   id="path433"
   d="m 182.81,672.147 c 10.654,-3.364 21.305,-6.729 32.069,-10.09 10.651,-3.364 21.303,-6.729 31.955,-10.205 10.651,3.477 21.303,6.841 32.067,10.205 10.652,3.361 21.303,6.726 31.957,10.09 0,4.373 0,8.857 0,13.23 -10.654,-2.801 -21.305,-5.605 -31.957,-8.298 -10.764,-2.8 -21.416,-5.604 -32.067,-8.409 -10.652,2.805 -21.304,5.609 -31.955,8.409 -10.764,2.692 -21.416,5.497 -32.069,8.298 0,-4.372 0,-8.856 0,-13.23 z"
   inkscape:connector-curvature="0"
   style="clip-rule:evenodd;fill:#0e2b54;fill-rule:evenodd" />
			<path
   id="path435"
   d="m 172.721,677.08 c 12.333,-3.924 24.78,-7.849 37.112,-11.661 12.334,-3.925 24.668,-7.846 37.002,-11.771 12.333,3.925 24.667,7.846 37.001,11.771 12.446,3.813 24.778,7.737 37.112,11.661 0,5.045 0,10.206 0,15.251 -12.333,-3.253 -24.666,-6.394 -37.112,-9.642 -12.334,-3.141 -24.668,-6.394 -37.001,-9.646 -12.334,3.252 -24.668,6.505 -37.002,9.646 -12.332,3.248 -24.778,6.389 -37.112,9.642 0,-5.045 0,-10.206 0,-15.251 z"
   inkscape:connector-curvature="0"
   style="clip-rule:evenodd;fill:#0e2b54;fill-rule:evenodd" />
			<polygon
   id="polygon437"
   points="246.834,674.392 166.441,701.412 246.834,725.408 327.227,701.412 "
   style="clip-rule:evenodd;fill:#1a4a8c;fill-rule:evenodd" />
			<polygon
   id="polygon439"
   points="246.834,877.448 165.992,852.108 246.834,829.685 327.677,852.108 "
   style="clip-rule:evenodd;fill:#1a4a8c;fill-rule:evenodd" />
			<path
   id="path441"
   d="m 327.677,852.108 c -13.457,3.813 -26.911,7.513 -40.367,11.214 -13.454,3.813 -27.02,7.509 -40.476,11.209 -13.455,-3.7 -26.911,-7.396 -40.477,-11.209 -13.456,-3.701 -26.91,-7.401 -40.366,-11.214 0,1.568 0,3.14 0,4.708 13.456,3.925 26.91,7.962 40.366,11.887 13.566,4.036 27.022,7.961 40.477,11.886 13.456,-3.925 27.022,-7.85 40.476,-11.886 13.456,-3.925 26.91,-7.962 40.367,-11.887 0,-1.568 0,-3.139 0,-4.708 z"
   inkscape:connector-curvature="0"
   style="clip-rule:evenodd;fill:#163d73;fill-rule:evenodd" />
			<path
   id="path443"
   d="m 174.851,700.74 c 11.996,-3.028 23.994,-6.057 35.992,-8.97 11.998,-3.028 23.994,-6.057 35.992,-9.081 11.998,3.024 23.994,6.053 35.992,9.081 11.998,2.913 23.996,5.941 35.992,8.97 0,25.34 0,50.568 0,75.908 0,25.34 0,50.68 0,75.908 -11.996,3.364 -23.994,6.729 -35.992,9.978 -11.998,3.364 -23.994,6.729 -35.992,10.093 -11.998,-3.364 -23.994,-6.729 -35.992,-10.093 -11.998,-3.249 -23.996,-6.613 -35.992,-9.978 0,-25.229 0,-50.568 0,-75.908 0,-25.34 0,-50.568 0,-75.908 z"
   inkscape:connector-curvature="0"
   style="clip-rule:evenodd;fill:#163d73;fill-rule:evenodd" />
			<path
   id="path445"
   d="m 180.568,701.412 c 10.091,-2.468 20.183,-4.933 30.274,-7.401 10.092,-2.353 20.184,-4.82 30.273,-7.285 0,30.609 0,61.33 0,91.938 0,30.726 0,61.446 0,92.055 -10.089,-2.8 -20.181,-5.604 -30.273,-8.409 -10.091,-2.801 -20.183,-5.604 -30.274,-8.297 0,-25.452 0,-50.904 0,-76.356 0,-25.341 0,-50.793 0,-76.245 z"
   inkscape:connector-curvature="0"
   style="clip-rule:evenodd;fill:#0e2b54;fill-rule:evenodd" />
			<path
   id="path447"
   d="m 183.932,705.449 c 8.97,-2.021 17.941,-4.037 26.91,-6.054 8.97,-2.02 17.939,-4.148 26.911,-6.169 0,28.705 0,57.521 0,86.226 0,28.701 0,57.405 0,86.11 -8.972,-2.353 -17.941,-4.709 -26.911,-7.178 -8.969,-2.352 -17.94,-4.708 -26.91,-7.061 0,-24.332 0,-48.664 0,-72.996 0,-24.215 0,-48.547 0,-72.878 z"
   inkscape:connector-curvature="0"
   style="clip-rule:evenodd;fill:#163d73;fill-rule:evenodd" />
			<path
   id="path449"
   d="m 206.134,695.247 c 3.139,-0.788 6.279,-1.572 9.417,-2.356 0,27.809 0,55.613 0,83.422 0,27.808 0,55.612 0,83.421 -3.139,-0.896 -6.279,-1.685 -9.417,-2.58 0,-26.909 0,-53.933 0,-80.953 0,-26.913 0,-53.933 0,-80.954 z"
   inkscape:connector-curvature="0"
   style="clip-rule:evenodd;fill:#0e2b54;fill-rule:evenodd" />
			<path
   id="path451"
   d="m 209.497,694.348 c 0.898,-0.225 1.794,-0.448 2.69,-0.561 0,27.473 0,55.053 0,82.525 0,27.468 0,54.94 0,82.524 -0.896,-0.34 -1.792,-0.563 -2.69,-0.788 0,-27.244 0,-54.492 0,-81.849 0,-27.247 0,-54.492 0,-81.851 z"
   inkscape:connector-curvature="0"
   style="clip-rule:evenodd;fill:#163d73;fill-rule:evenodd" />
			<path
   id="path453"
   d="m 216.562,699.732 c 2.018,-0.452 4.035,-0.9 6.055,-1.349 0,8.521 0,17.043 0,25.564 -2.02,0.336 -4.037,0.563 -6.055,0.899 0,-8.408 0,-16.817 0,-25.114 z m 6.054,26.46 c 0,8.521 0,17.042 0,25.563 -2.02,0.112 -4.037,0.225 -6.055,0.336 0,-8.297 0,-16.706 0,-25.115 2.019,-0.224 4.035,-0.56 6.055,-0.784 z m 1.344,-28.144 c 1.794,-0.336 3.589,-0.784 5.383,-1.12 0,8.633 0,17.379 0,26.012 -1.794,0.225 -3.588,0.561 -5.383,0.784 0,-8.522 0,-17.155 0,-25.676 z m 5.383,27.136 c 0,8.746 0,17.491 0,26.125 -1.794,0.111 -3.588,0.224 -5.383,0.336 0,-8.521 0,-17.155 0,-25.677 1.795,-0.224 3.589,-0.448 5.383,-0.784 z m 1.345,-28.592 c 2.019,-0.448 4.037,-0.896 6.055,-1.345 0,8.857 0,17.715 0,26.685 -2.019,0.224 -4.037,0.56 -6.055,0.784 0,-8.634 0,-17.379 0,-26.124 z m 6.055,27.58 c 0,8.861 0,17.831 0,26.688 -2.019,0.111 -4.037,0.224 -6.055,0.336 0,-8.634 0,-17.379 0,-26.124 2.018,-0.336 4.036,-0.56 6.055,-0.9 z"
   inkscape:connector-curvature="0"
   style="clip-rule:evenodd;fill:#fefefe;fill-rule:evenodd" />
			<path
   id="path455"
   d="m 217.682,755.345 c 5.943,-0.336 11.998,-0.672 18.053,-1.008 0,11.321 0,22.535 0,33.861 -6.055,-0.336 -12.11,-0.561 -18.053,-0.784 0,-10.766 0,-21.42 0,-32.069 z"
   inkscape:connector-curvature="0"
   style="clip-rule:evenodd;fill:#0e2b54;fill-rule:evenodd" />
			<path
   id="path457"
   d="m 217.682,790.662 c 5.943,0.336 11.998,0.673 18.053,1.013 0,11.21 0,22.535 0,33.749 -6.055,-0.9 -12.11,-1.796 -18.053,-2.805 0,-10.653 0,-21.303 0,-31.957 z"
   inkscape:connector-curvature="0"
   style="clip-rule:evenodd;fill:#0e2b54;fill-rule:evenodd" />
			<path
   id="path459"
   d="m 217.682,825.984 c 5.943,0.896 11.998,1.904 18.053,2.912 0,11.214 0,22.539 0,33.749 -6.055,-1.568 -12.11,-3.137 -18.053,-4.708 0,-10.65 0,-21.303 0,-31.953 z"
   inkscape:connector-curvature="0"
   style="clip-rule:evenodd;fill:#0e2b54;fill-rule:evenodd" />
			<path
   id="path461"
   d="m 216,767.455 c 0.448,0 0.786,0 1.234,0 0,2.576 0,5.269 0,7.849 -0.448,0 -0.786,0 -1.234,0 0,-2.58 0,-5.273 0,-7.849 z"
   inkscape:connector-curvature="0"
   style="clip-rule:evenodd;fill:#0e2b54;fill-rule:evenodd" />
			<path
   id="path463"
   d="m 219.028,787.638 c 0.448,0 0.896,0.672 0.896,1.456 0,0.673 -0.448,1.232 -0.896,1.232 -0.448,0 -0.786,-0.672 -0.786,-1.344 0,-0.784 0.338,-1.344 0.786,-1.344 z"
   inkscape:connector-curvature="0"
   style="clip-rule:evenodd;fill:#fbd012;fill-rule:evenodd" />
			<path
   id="path465"
   d="m 219.028,787.862 c 0.448,0 0.784,0.56 0.784,1.12 0,0.672 -0.336,1.12 -0.784,1.12 -0.336,0 -0.674,-0.448 -0.674,-1.12 0,-0.672 0.338,-1.12 0.674,-1.12 z"
   inkscape:connector-curvature="0"
   style="clip-rule:evenodd;fill-rule:evenodd" />
			<path
   id="path467"
   d="m 219.028,787.974 c 0.448,0 0.672,0.448 0.672,1.009 0,0.672 -0.224,1.12 -0.672,1.12 -0.336,-0.112 -0.56,-0.561 -0.56,-1.12 0,-0.561 0.224,-1.009 0.56,-1.009 z"
   inkscape:connector-curvature="0"
   style="clip-rule:evenodd;fill:#fbd012;fill-rule:evenodd" />
			<path
   id="path469"
   d="m 218.468,788.87 c 0.448,0 0.784,0 1.232,0.112 v 0 0 c 0,0.111 0,0.111 0,0.111 -0.448,0 -0.784,0 -1.232,0 v -0.111 0 c 0,-0.112 0,-0.112 0,-0.112 z"
   inkscape:connector-curvature="0"
   style="clip-rule:evenodd;fill-rule:evenodd" />
			<path
   id="path471"
   d="m 219.028,788.758 c 0.112,0 0.224,0.112 0.224,0.225 0,0.111 -0.112,0.224 -0.224,0.224 -0.112,0 -0.112,-0.112 -0.112,-0.224 0,-0.113 0,-0.225 0.112,-0.225 z"
   inkscape:connector-curvature="0"
   style="clip-rule:evenodd;fill-rule:evenodd" />
			<path
   id="path473"
   d="m 184.38,706.681 c 2.019,-0.447 4.037,-0.896 6.055,-1.344 0,7.737 0,15.475 0,23.208 -2.019,0.34 -4.037,0.563 -6.055,0.899 0,-7.625 0,-15.137 0,-22.763 z m 6.056,23.883 c 0,7.737 0,15.475 0,23.212 -2.019,0.112 -4.037,0.224 -6.055,0.336 0,-7.625 0,-15.138 0,-22.764 2.018,-0.223 4.036,-0.559 6.055,-0.784 z m 1.346,-25.451 c 1.794,-0.448 3.586,-0.784 5.269,-1.232 0,7.957 0,15.807 0,23.655 -1.682,0.336 -3.475,0.561 -5.269,0.784 0,-7.733 0,-15.47 0,-23.207 z m 5.268,24.556 c 0,7.849 0,15.694 0,23.655 -1.682,0.112 -3.475,0.225 -5.269,0.336 0,-7.732 0,-15.582 0,-23.319 1.795,-0.224 3.587,-0.448 5.269,-0.672 z m 1.459,-26.124 c 2.018,-0.34 3.924,-0.9 5.943,-1.349 0,8.186 0,16.259 0,24.332 -2.019,0.224 -3.925,0.56 -5.943,0.896 0,-7.961 0,-15.922 0,-23.879 z m 5.943,25 c 0,8.185 0,16.258 0,24.331 -2.019,0.112 -3.925,0.225 -5.943,0.337 0,-7.962 0,-15.807 0,-23.769 2.018,-0.336 3.924,-0.559 5.943,-0.899 z"
   inkscape:connector-curvature="0"
   style="clip-rule:evenodd;fill:#fefefe;fill-rule:evenodd" />
			<path
   id="path475"
   d="m 185.391,757.025 c 6.055,-0.336 12.11,-0.673 18.051,-1.009 0,10.313 0,20.52 0,30.722 -5.941,-0.225 -11.996,-0.561 -18.051,-0.785 0,-9.64 0,-19.282 0,-28.928 z"
   inkscape:connector-curvature="0"
   style="clip-rule:evenodd;fill:#0e2b54;fill-rule:evenodd" />
			<path
   id="path477"
   d="m 185.391,788.87 c 6.055,0.336 12.11,0.672 18.051,1.008 0,10.206 0,20.52 0,30.722 -5.941,-0.896 -11.996,-1.793 -18.051,-2.689 0,-9.645 0,-19.287 0,-29.041 z"
   inkscape:connector-curvature="0"
   style="clip-rule:evenodd;fill:#0e2b54;fill-rule:evenodd" />
			<path
   id="path479"
   d="m 185.391,820.827 c 6.055,1.008 12.11,2.017 18.051,2.912 0,10.318 0,20.52 0,30.726 -5.941,-1.572 -11.996,-3.141 -18.051,-4.713 0,-9.642 0,-19.283 0,-28.925 z"
   inkscape:connector-curvature="0"
   style="clip-rule:evenodd;fill:#0e2b54;fill-rule:evenodd" />
			<path
   id="path481"
   d="m 187.409,759.941 c 4.709,-0.224 9.306,-0.336 14.014,-0.56 0,8.073 0,16.034 0,24.107 -4.708,-0.224 -9.305,-0.34 -14.014,-0.448 0,-7.736 0,-15.361 0,-23.099 z"
   inkscape:connector-curvature="0"
   style="clip-rule:evenodd;fill:#c3c1ae;fill-rule:evenodd" />
			<path
   id="path483"
   d="m 313.101,701.412 c -10.091,-2.468 -20.183,-4.933 -30.274,-7.401 -10.092,-2.353 -20.182,-4.82 -30.273,-7.285 0,30.609 0,61.33 0,91.938 0,30.726 0,61.446 0,92.055 10.091,-2.8 20.181,-5.604 30.273,-8.409 10.091,-2.801 20.183,-5.604 30.274,-8.297 0,-25.452 0,-50.904 0,-76.356 0,-25.341 0,-50.793 0,-76.245 z"
   inkscape:connector-curvature="0"
   style="clip-rule:evenodd;fill:#0e2b54;fill-rule:evenodd" />
			<path
   id="path485"
   d="m 309.736,705.449 c -8.97,-2.021 -17.941,-4.037 -26.91,-6.054 -8.97,-2.02 -17.939,-4.148 -26.911,-6.169 0,28.705 0,57.521 0,86.226 0,28.701 0,57.405 0,86.11 8.972,-2.353 17.941,-4.709 26.911,-7.178 8.969,-2.352 17.94,-4.708 26.91,-7.061 0,-24.332 0,-48.664 0,-72.996 0,-24.215 0,-48.547 0,-72.878 z"
   inkscape:connector-curvature="0"
   style="clip-rule:evenodd;fill:#163d73;fill-rule:evenodd" />
			<path
   id="path487"
   d="m 287.535,695.247 c -3.139,-0.788 -6.277,-1.572 -9.417,-2.356 0,27.809 0,55.613 0,83.422 0,27.808 0,55.612 0,83.421 3.141,-0.896 6.279,-1.685 9.417,-2.58 0,-26.909 0,-53.933 0,-80.953 0,-26.913 0,-53.933 0,-80.954 z"
   inkscape:connector-curvature="0"
   style="clip-rule:evenodd;fill:#0e2b54;fill-rule:evenodd" />
			<path
   id="path489"
   d="m 284.172,694.348 c -0.898,-0.225 -1.794,-0.448 -2.69,-0.561 0,27.473 0,55.053 0,82.525 0,27.468 0,54.94 0,82.524 0.896,-0.34 1.792,-0.563 2.69,-0.788 0,-27.244 0,-54.492 0,-81.849 0,-27.247 0,-54.492 0,-81.851 z"
   inkscape:connector-curvature="0"
   style="clip-rule:evenodd;fill:#163d73;fill-rule:evenodd" />
			<path
   id="path491"
   d="m 308.728,706.681 c -2.019,-0.447 -4.037,-0.896 -6.055,-1.344 0,7.737 0,15.475 0,23.208 2.019,0.34 4.037,0.563 6.055,0.899 0,-7.625 0,-15.137 0,-22.763 z m -6.055,23.883 c 0,7.737 0,15.475 0,23.212 2.019,0.112 4.037,0.224 6.055,0.336 0,-7.625 0,-15.138 0,-22.764 -2.019,-0.223 -4.037,-0.559 -6.055,-0.784 z m -1.346,-25.451 c -1.794,-0.448 -3.477,-0.784 -5.271,-1.232 0,7.957 0,15.807 0,23.655 1.794,0.336 3.477,0.561 5.271,0.784 0,-7.733 0,-15.47 0,-23.207 z m -5.271,24.556 c 0,7.849 0,15.694 0,23.655 1.794,0.112 3.477,0.225 5.271,0.336 0,-7.732 0,-15.582 0,-23.319 -1.794,-0.224 -3.477,-0.448 -5.271,-0.672 z M 294.6,703.545 c -1.906,-0.34 -3.924,-0.9 -5.943,-1.349 0,8.186 0,16.259 0,24.332 2.019,0.224 4.037,0.56 5.943,0.896 0,-7.961 0,-15.922 0,-23.879 z m -5.943,25 c 0,8.185 0,16.258 0,24.331 2.019,0.112 4.037,0.225 5.943,0.337 0,-7.962 0,-15.807 0,-23.769 -1.907,-0.336 -3.925,-0.559 -5.943,-0.899 z"
   inkscape:connector-curvature="0"
   style="clip-rule:evenodd;fill:#fefefe;fill-rule:evenodd" />
			<path
   id="path493"
   d="m 307.718,757.025 c -6.055,-0.336 -11.998,-0.673 -18.051,-1.009 0,10.313 0,20.52 0,30.722 6.053,-0.225 11.996,-0.561 18.051,-0.785 0,-9.64 0,-19.282 0,-28.928 z"
   inkscape:connector-curvature="0"
   style="clip-rule:evenodd;fill:#0e2b54;fill-rule:evenodd" />
			<path
   id="path495"
   d="m 307.718,788.87 c -6.055,0.336 -11.998,0.672 -18.051,1.008 0,10.206 0,20.52 0,30.722 6.053,-0.896 11.996,-1.793 18.051,-2.689 0,-9.645 0,-19.287 0,-29.041 z"
   inkscape:connector-curvature="0"
   style="clip-rule:evenodd;fill:#0e2b54;fill-rule:evenodd" />
			<path
   id="path497"
   d="m 307.718,820.827 c -6.055,1.008 -11.998,2.017 -18.051,2.912 0,10.318 0,20.52 0,30.726 6.053,-1.572 11.996,-3.141 18.051,-4.713 0,-9.642 0,-19.283 0,-28.925 z"
   inkscape:connector-curvature="0"
   style="clip-rule:evenodd;fill:#0e2b54;fill-rule:evenodd" />
			<path
   id="path499"
   d="m 277.109,699.732 c -2.02,-0.452 -4.037,-0.9 -6.055,-1.349 0,8.521 0,17.043 0,25.564 2.018,0.336 4.035,0.563 6.055,0.899 0,-8.408 0,-16.817 0,-25.114 z m -6.055,26.46 c 0,8.521 0,17.042 0,25.563 2.018,0.112 4.035,0.225 6.055,0.336 0,-8.297 0,-16.706 0,-25.115 -2.02,-0.224 -4.037,-0.56 -6.055,-0.784 z m -1.346,-28.144 c -1.794,-0.336 -3.589,-0.784 -5.383,-1.12 0,8.633 0,17.379 0,26.012 1.794,0.225 3.588,0.561 5.383,0.784 0,-8.522 0,-17.155 0,-25.676 z m -5.383,27.136 c 0,8.746 0,17.491 0,26.125 1.794,0.111 3.588,0.224 5.383,0.336 0,-8.521 0,-17.155 0,-25.677 -1.794,-0.224 -3.589,-0.448 -5.383,-0.784 z m -1.344,-28.592 c -2.019,-0.448 -4.037,-0.896 -6.055,-1.345 0,8.857 0,17.715 0,26.685 2.019,0.224 4.037,0.56 6.055,0.784 0,-8.634 0,-17.379 0,-26.124 z m -6.055,27.58 c 0,8.861 0,17.831 0,26.688 2.019,0.111 4.037,0.224 6.055,0.336 0,-8.634 0,-17.379 0,-26.124 -2.019,-0.336 -4.037,-0.56 -6.055,-0.9 z"
   inkscape:connector-curvature="0"
   style="clip-rule:evenodd;fill:#fefefe;fill-rule:evenodd" />
			<path
   id="path501"
   d="m 275.987,755.345 c -5.943,-0.336 -11.998,-0.672 -17.941,-1.008 0,11.321 0,22.535 0,33.861 5.943,-0.336 11.998,-0.561 17.941,-0.784 0,-10.766 0,-21.42 0,-32.069 z"
   inkscape:connector-curvature="0"
   style="clip-rule:evenodd;fill:#0e2b54;fill-rule:evenodd" />
			<path
   id="path503"
   d="m 275.987,790.662 c -5.943,0.336 -11.998,0.673 -17.941,1.013 0,11.21 0,22.535 0,33.749 5.943,-0.9 11.998,-1.796 17.941,-2.805 0,-10.653 0,-21.303 0,-31.957 z"
   inkscape:connector-curvature="0"
   style="clip-rule:evenodd;fill:#0e2b54;fill-rule:evenodd" />
			<path
   id="path505"
   d="m 275.987,825.984 c -5.943,0.896 -11.998,1.904 -17.941,2.912 0,11.214 0,22.539 0,33.749 5.943,-1.568 11.998,-3.137 17.941,-4.708 0,-10.65 0,-21.303 0,-31.953 z"
   inkscape:connector-curvature="0"
   style="clip-rule:evenodd;fill:#0e2b54;fill-rule:evenodd" />
			<path
   id="path507"
   d="m 166.441,684.93 c 13.454,-4.261 26.796,-8.521 40.252,-12.782 13.342,-4.148 26.798,-8.409 40.141,-12.67 13.456,4.261 26.798,8.521 40.14,12.67 13.456,4.261 26.798,8.521 40.252,12.782 0,5.493 0,10.989 0,16.482 -13.454,-3.477 -26.796,-6.953 -40.252,-10.43 -13.342,-3.473 -26.684,-6.949 -40.14,-10.426 -13.342,3.477 -26.798,6.953 -40.141,10.426 -13.456,3.477 -26.798,6.953 -40.252,10.43 0,-5.493 0,-10.989 0,-16.482 z"
   inkscape:connector-curvature="0"
   style="clip-rule:evenodd;fill:#163d73;fill-rule:evenodd" />
			<path
   id="path509"
   d="m 169.244,688.294 c 12.446,-3.813 25.004,-7.513 37.45,-11.325 12.446,-3.812 24.892,-7.514 37.338,-11.326 0,3.477 0,6.953 0,10.317 -12.446,3.477 -24.892,6.841 -37.338,10.313 -12.446,3.365 -25.004,6.842 -37.45,10.206 0,-2.692 0,-5.497 0,-8.185 z"
   inkscape:connector-curvature="0"
   style="clip-rule:evenodd;fill-rule:evenodd" />
			<path
   id="path511"
   d="m 175.299,693.339 c 0,-1.792 0,-3.589 0,-5.381 0.336,-0.112 0.784,-0.224 1.12,-0.336 0.45,-0.224 0.786,-0.224 0.898,-0.112 0.224,-0.111 0.336,0 0.56,0.336 0.112,0.112 0.112,0.561 0.112,0.896 0,0.335 0,0.672 -0.112,0.896 0,0.336 -0.112,0.448 -0.224,0.672 -0.112,0.224 -0.336,0.336 -0.448,0.336 -0.112,0.112 -0.448,0.225 -0.672,0.336 -0.226,0 -0.338,0.116 -0.562,0.116 0,0.672 0,1.344 0,2.017 -0.224,0.112 -0.448,0.112 -0.672,0.224 z m 0.672,-4.709 c 0,0.561 0,1.009 0,1.568 0.224,-0.111 0.336,-0.111 0.448,-0.111 0.226,-0.112 0.45,-0.225 0.562,-0.225 0.112,-0.112 0.224,-0.224 0.224,-0.336 0.112,-0.224 0.112,-0.336 0.112,-0.448 0,-0.224 -0.112,-0.448 -0.112,-0.448 -0.112,-0.111 -0.224,-0.224 -0.336,-0.224 -0.112,0 -0.224,0 -0.45,0.112 -0.224,10e-4 -0.336,0.112 -0.448,0.112 z m 2.467,1.12 c 0,-0.56 0.112,-1.008 0.224,-1.456 0.112,-0.336 0.226,-0.56 0.338,-0.784 0.112,-0.336 0.224,-0.56 0.448,-0.676 0.224,-0.224 0.448,-0.336 0.784,-0.448 0.448,-0.112 0.898,0 1.234,0.34 0.336,0.448 0.448,1.12 0.448,2.017 0,0.897 -0.112,1.568 -0.448,2.24 -0.336,0.564 -0.672,0.9 -1.234,1.124 -0.561,0.112 -1.008,0 -1.232,-0.448 -0.338,-0.337 -0.562,-1.013 -0.562,-1.909 z m 0.786,-0.224 c 0,0.561 0.112,1.008 0.336,1.345 0.112,0.228 0.336,0.34 0.672,0.228 0.224,-0.116 0.562,-0.34 0.674,-0.676 0.224,-0.336 0.336,-0.896 0.336,-1.457 0,-0.672 -0.112,-1.12 -0.336,-1.344 -0.112,-0.336 -0.338,-0.448 -0.674,-0.336 -0.336,0.112 -0.561,0.336 -0.784,0.672 -0.113,0.448 -0.224,0.896 -0.224,1.568 z m 3.25,1.796 c 0,-1.796 0,-3.7 0,-5.496 0.336,-0.112 0.56,-0.112 0.786,-0.225 0,1.572 0,3.028 0,4.597 0.56,-0.224 1.232,-0.336 1.794,-0.448 0,0.225 0,0.561 0,0.896 -0.898,0.225 -1.682,0.453 -2.58,0.676 z m 3.028,-0.788 c 0,-1.904 0,-3.809 0,-5.604 0.224,-0.112 0.56,-0.225 0.784,-0.225 0,1.793 0,3.701 0,5.605 -0.223,0.001 -0.559,0.113 -0.784,0.224 z m 3.701,-3.136 c 0.224,0 0.448,0.111 0.672,0.111 0,0.672 -0.224,1.232 -0.448,1.568 -0.224,0.336 -0.562,0.561 -1.01,0.672 -0.448,0.225 -0.784,0 -1.12,-0.447 -0.338,-0.337 -0.45,-1.009 -0.45,-1.904 0,-1.013 0.112,-1.797 0.45,-2.356 0.336,-0.561 0.672,-1.009 1.232,-1.12 0.448,-0.112 0.786,0 1.01,0.336 0.224,0.111 0.336,0.447 0.336,0.896 -0.224,0.112 -0.448,0.337 -0.672,0.448 0,-0.224 -0.112,-0.448 -0.226,-0.56 -0.112,-0.112 -0.336,-0.225 -0.56,-0.112 -0.224,0 -0.448,0.224 -0.56,0.561 -0.224,0.447 -0.336,0.896 -0.336,1.571 0,0.673 0.112,1.232 0.336,1.457 0.112,0.224 0.336,0.336 0.56,0.224 0.224,0 0.336,-0.112 0.56,-0.336 0.114,-0.337 0.226,-0.561 0.226,-1.009 z m 1.344,1.68 c 0,-1.904 0,-3.813 0,-5.717 0.898,-0.224 1.794,-0.448 2.69,-0.784 0,0.336 0,0.672 0,1.008 -0.672,0.225 -1.344,0.337 -2.019,0.561 0,0.448 0,0.896 0,1.232 0.674,-0.112 1.234,-0.336 1.794,-0.448 0,0.336 0,0.672 0,0.896 -0.56,0.224 -1.12,0.336 -1.794,0.56 0,0.564 0,1.013 0,1.572 0.674,-0.224 1.346,-0.336 2.019,-0.56 0,0.336 0,0.672 0,0.896 -0.895,0.336 -1.792,0.56 -2.69,0.784 z"
   inkscape:connector-curvature="0"
   style="fill:#fefefe" />
			<path
   id="path513"
   d="m 227.549,672.372 c 0.448,-0.112 1.008,-0.225 1.456,-0.337 0.338,-0.111 0.45,-0.224 0.674,-0.224 0.112,0.112 0.224,0.112 0.336,0.224 0.112,0.112 0.224,0.225 0.224,0.448 0.112,0.225 0.112,0.448 0.112,0.673 0,0.336 0,0.672 -0.112,0.896 -0.112,0.34 -0.224,0.452 -0.336,0.676 0.224,0 0.336,0.225 0.448,0.448 0.112,0.225 0.224,0.561 0.224,0.896 0,0.335 0,0.561 -0.112,0.896 -0.112,0.336 -0.224,0.56 -0.336,0.784 -0.112,0.111 -0.224,0.336 -0.448,0.336 -0.112,0.111 -0.448,0.224 -0.898,0.34 -0.448,0.112 -0.784,0.224 -1.232,0.336 0,-2.131 0,-4.26 0,-6.392 z m 0.784,0.896 c 0,0.448 0,1.013 0,1.46 0.112,-0.111 0.224,-0.111 0.448,-0.111 0.224,-0.112 0.45,-0.225 0.562,-0.225 0.112,0 0.112,-0.111 0.224,-0.34 0.112,-0.112 0.112,-0.224 0.112,-0.448 0,-0.224 0,-0.336 -0.112,-0.447 0,-0.112 -0.112,-0.225 -0.224,-0.225 -0.112,0.112 -0.338,0.112 -0.674,0.225 -0.112,-0.001 -0.224,-0.001 -0.336,0.111 z m 0,2.468 c 0,0.672 0,1.232 0,1.792 0.224,-0.112 0.448,-0.112 0.672,-0.224 0.226,-0.112 0.338,-0.112 0.45,-0.225 0.112,0 0.224,-0.111 0.224,-0.336 0.112,-0.111 0.112,-0.336 0.112,-0.56 0,-0.112 0,-0.337 0,-0.448 -0.112,-0.112 -0.224,-0.225 -0.224,-0.225 -0.112,0 -0.336,0 -0.674,0.112 -0.224,0.002 -0.448,0.114 -0.56,0.114 z m 2.693,-1.12 c 0,-0.677 0.112,-1.236 0.224,-1.685 0,-0.336 0.112,-0.672 0.336,-1.008 0.112,-0.225 0.224,-0.561 0.448,-0.673 0.224,-0.224 0.448,-0.336 0.784,-0.447 0.448,-0.225 0.898,-0.112 1.234,0.447 0.336,0.561 0.448,1.345 0.448,2.353 0,1.013 -0.112,1.908 -0.448,2.581 -0.336,0.672 -0.786,1.12 -1.234,1.231 -0.56,0.112 -1.008,0 -1.344,-0.56 -0.224,-0.447 -0.448,-1.231 -0.448,-2.239 z m 0.784,-0.224 c 0,0.673 0.112,1.232 0.224,1.568 0.224,0.336 0.448,0.448 0.784,0.336 0.224,-0.111 0.448,-0.336 0.674,-0.784 0.224,-0.336 0.224,-1.008 0.224,-1.684 0,-0.784 0,-1.345 -0.224,-1.681 -0.226,-0.224 -0.45,-0.336 -0.674,-0.336 -0.336,0.112 -0.56,0.336 -0.784,0.784 -0.112,0.449 -0.224,1.009 -0.224,1.797 z m 2.914,2.352 c 0.336,-1.232 0.786,-2.464 1.234,-3.7 -0.448,-0.896 -0.784,-1.904 -1.122,-2.801 0.224,-0.112 0.562,-0.112 0.786,-0.228 0.224,0.563 0.56,1.235 0.784,1.908 0.224,-0.784 0.448,-1.568 0.672,-2.356 0.224,-0.112 0.562,-0.112 0.786,-0.225 -0.336,1.124 -0.674,2.356 -1.01,3.477 0.336,1.009 0.786,2.021 1.123,3.028 -0.224,0.112 -0.563,0.112 -0.786,0.225 -0.336,-0.672 -0.56,-1.345 -0.784,-2.021 -0.336,0.9 -0.56,1.685 -0.784,2.469 -0.336,0.113 -0.675,0.113 -0.899,0.224 z"
   inkscape:connector-curvature="0"
   style="fill:#fefefe" />
			<path
   id="path515"
   d="m 202.657,682.461 c 0,-0.896 0,-1.792 0,-2.688 0.224,0 0.336,0 0.56,-0.111 0.224,0 0.336,-0.112 0.336,-0.112 0.112,0 0.224,0.112 0.224,0.224 0.112,0.112 0.112,0.225 0.112,0.448 0,0.225 0,0.336 0,0.448 -0.112,0.112 -0.112,0.224 -0.224,0.336 0,0.112 -0.112,0.112 -0.112,0.112 -0.112,0.112 -0.224,0.112 -0.336,0.224 -0.112,0 -0.112,0 -0.224,0 0,0.336 0,0.673 0,1.009 -0.112,-10e-4 -0.224,0.11 -0.336,0.11 z m 0.336,-2.353 c 0,0.337 0,0.561 0,0.784 0.112,0 0.112,0 0.224,0 0.112,-0.111 0.224,-0.111 0.224,-0.111 0,-0.112 0.112,-0.112 0.112,-0.225 0,0 0,-0.111 0,-0.224 0,-0.113 0,-0.112 0,-0.225 -0.112,0 -0.112,0 -0.224,0 0,0 -0.112,0 -0.224,0 h -0.112 z m 1.122,-0.671 c 0.112,-0.112 0.224,-0.112 0.336,-0.112 0,0.448 0,0.896 0,1.345 0,0.224 0,0.448 0,0.561 l 0.112,0.111 c 0.112,0.112 0.112,0.112 0.224,0 0.112,0 0.112,0 0.224,-0.111 0,0 0.112,-0.112 0.112,-0.225 0,-0.113 0,-0.224 0,-0.448 0,-0.448 0,-1.008 0,-1.456 0.112,0 0.224,0 0.336,-0.112 0,0.448 0,0.896 0,1.345 0,0.336 0,0.56 -0.112,0.672 0,0.225 0,0.336 0,0.448 -0.112,0.112 -0.112,0.112 -0.224,0.224 -0.112,0.112 -0.224,0.225 -0.336,0.225 -0.112,0 -0.224,0 -0.336,0 -0.112,0 -0.112,-0.112 -0.224,-0.225 0,0 0,-0.111 0,-0.224 -0.112,-0.112 -0.112,-0.336 -0.112,-0.672 0,-0.45 0,-0.898 0,-1.346 z m 1.681,-0.56 c 0.226,0 0.338,-0.112 0.562,-0.112 0.112,-0.112 0.224,-0.112 0.336,-0.112 h 0.112 c 0.112,0.112 0.112,0.112 0.112,0.225 0.112,0.111 0.112,0.224 0.112,0.336 0,0.111 0,0.224 -0.112,0.336 0,0.112 -0.112,0.224 -0.112,0.336 0.112,0 0.112,0.112 0.224,0.112 0,0.111 0,0.224 0,0.336 0,0.224 0,0.336 0,0.448 0,0.111 -0.112,0.224 -0.112,0.224 -0.112,0.112 -0.112,0.225 -0.224,0.225 -0.112,0.111 -0.224,0.111 -0.448,0.111 -0.112,0.112 -0.336,0.112 -0.45,0.225 0,-0.898 0,-1.795 0,-2.69 z m 0.338,0.336 c 0,0.224 0,0.448 0,0.672 0,0 0.112,0 0.112,-0.112 0.112,0 0.224,0 0.224,0 0.112,-0.111 0.112,-0.111 0.224,-0.224 0,0 0,-0.112 0,-0.225 0,-0.111 0,-0.111 0,-0.111 -0.112,-0.112 -0.112,-0.112 -0.112,-0.112 -0.112,0 -0.224,0 -0.336,0.112 z m 0,1.12 c 0,0.224 0,0.448 0,0.672 0,0 0.112,-0.112 0.224,-0.112 0.112,0 0.224,0 0.224,0 0.112,-0.111 0.112,-0.111 0.112,-0.224 0,0 0,-0.112 0,-0.224 0,-0.112 0,-0.112 0,-0.225 0,0 0,0 -0.112,0 0,-0.112 -0.112,0 -0.224,0 -0.112,10e-4 -0.224,10e-4 -0.224,0.113 z m 1.232,0.784 c 0,-0.896 0,-1.793 0,-2.688 0.112,0 0.224,-0.116 0.336,-0.116 0,0.788 0,1.46 0,2.244 0.224,-0.111 0.562,-0.224 0.786,-0.224 0,0.112 0,0.224 0,0.448 -0.338,0.112 -0.786,0.224 -1.122,0.336 z m 1.346,-0.448 c 0,-0.896 0,-1.792 0,-2.692 0.112,0 0.224,0 0.336,0 0,0.788 0,1.796 0,2.58 -0.112,0.112 -0.224,0.112 -0.336,0.112 z m 1.57,-1.456 c 0.112,0 0.224,0.111 0.336,0.111 0,0.225 -0.112,0.561 -0.224,0.673 -0.112,0.224 -0.224,0.336 -0.45,0.336 -0.224,0.112 -0.336,0 -0.448,-0.225 -0.224,-0.111 -0.224,-0.447 -0.224,-0.896 0,-0.449 0.112,-0.784 0.224,-1.124 0.112,-0.225 0.336,-0.448 0.562,-0.448 0.112,-0.112 0.336,-0.112 0.448,0.112 0,0.111 0.112,0.224 0.112,0.447 -0.112,0 -0.224,0.112 -0.336,0.229 0,-0.116 0,-0.229 -0.112,-0.34 0,0 -0.112,-0.112 -0.226,0 -0.112,0 -0.224,0.111 -0.224,0.224 -0.112,0.229 -0.112,0.452 -0.112,0.788 0,0.336 0,0.561 0.112,0.672 0,0.112 0.112,0.112 0.224,0.112 0.114,0 0.226,-0.112 0.226,-0.224 0.112,-0.111 0.112,-0.223 0.112,-0.447 z"
   inkscape:connector-curvature="0"
   style="fill:#fefefe" />
			<path
   id="path517"
   d="m 204.899,684.146 c 0.112,0 0.224,0.112 0.336,0.112 -0.112,0.224 -0.224,0.56 -0.336,0.672 -0.112,0.224 -0.224,0.224 -0.336,0.336 -0.224,0.112 -0.448,0 -0.56,-0.224 -0.114,-0.225 -0.226,-0.448 -0.226,-0.896 0,-0.448 0.112,-0.784 0.226,-1.12 0.112,-0.225 0.336,-0.448 0.56,-0.564 0.224,0 0.336,0 0.448,0.229 0.112,0.111 0.112,0.224 0.112,0.448 -0.112,0 -0.224,0.111 -0.224,0.224 -0.112,-0.224 -0.112,-0.224 -0.112,-0.336 -0.112,0 -0.224,0 -0.224,0 -0.112,0 -0.224,0.112 -0.336,0.224 -0.112,0.225 -0.112,0.448 -0.112,0.673 0,0.336 0,0.672 0.112,0.783 0.112,0.112 0.224,0.112 0.336,0.112 0,0 0.112,-0.112 0.224,-0.224 0.001,-0.114 0.112,-0.226 0.112,-0.449 z m 2.019,0.448 c -0.112,0 -0.224,0 -0.336,0 -0.112,-0.112 -0.112,-0.336 -0.224,-0.561 -0.224,0.112 -0.336,0.225 -0.562,0.225 -0.112,0.224 -0.112,0.447 -0.112,0.672 -0.224,0 -0.336,0 -0.448,0 0.224,-0.896 0.448,-1.792 0.674,-2.805 0.112,0 0.224,0 0.336,-0.111 0.224,0.899 0.448,1.683 0.672,2.58 z m -0.672,-0.897 c 0,-0.336 -0.112,-0.56 -0.224,-1.008 0,0.448 -0.112,0.784 -0.112,1.12 0.112,-0.112 0.224,-0.112 0.336,-0.112 z m 0.784,0.784 c 0,-0.896 0,-1.792 0,-2.58 0.112,-0.112 0.224,-0.112 0.336,-0.112 0,0.672 0,1.46 0,2.133 0.224,-0.112 0.56,-0.112 0.784,-0.225 0,0.225 0,0.336 0,0.448 -0.336,0.113 -0.672,0.224 -1.12,0.336 z m 1.346,-0.448 c 0,-0.784 0,-1.684 0,-2.58 0.112,0 0.224,0 0.336,-0.112 0,0.784 0,1.46 0,2.244 0.224,-0.111 0.56,-0.111 0.784,-0.224 0,0.112 0,0.224 0,0.448 -0.336,0.113 -0.672,0.224 -1.12,0.224 z"
   inkscape:connector-curvature="0"
   style="fill:#fefefe" />
			<path
   id="path519"
   d="m 324.424,688.294 c -12.446,-3.813 -24.892,-7.513 -37.45,-11.325 -12.446,-3.813 -24.892,-7.514 -37.338,-11.326 0,3.477 0,6.953 0,10.317 12.446,3.477 24.892,6.841 37.338,10.313 12.558,3.365 25.004,6.842 37.45,10.206 0,-2.692 0,-5.497 0,-8.185 z"
   inkscape:connector-curvature="0"
   style="clip-rule:evenodd;fill-rule:evenodd" />
			<path
   id="path521"
   d="m 255.692,676.072 c 0,-1.792 0,-3.589 0,-5.381 0.336,0.112 0.786,0.224 1.122,0.336 0.448,0.112 0.672,0.224 0.896,0.336 0.112,0.112 0.336,0.336 0.448,0.561 0.112,0.336 0.224,0.784 0.224,1.12 0,0.336 0,0.672 -0.112,0.896 -0.112,0.225 -0.224,0.341 -0.336,0.452 -0.112,0.112 -0.224,0.112 -0.336,0.112 -0.224,0 -0.448,0 -0.784,-0.112 -0.112,0 -0.336,-0.111 -0.448,-0.111 0,0.672 0,1.344 0,2.016 -0.224,-0.112 -0.45,-0.112 -0.674,-0.225 z m 27.358,4.485 c 0,-0.784 0,-1.68 0,-2.58 0.112,0.112 0.336,0.112 0.448,0.224 0.226,0 0.338,0 0.45,0.112 0.112,0 0.112,0.116 0.224,0.34 0,0.112 0.112,0.225 0.112,0.448 0,0.223 0,0.336 -0.112,0.448 0,0.112 -0.112,0.112 -0.112,0.224 0,0 -0.112,0 -0.112,0.112 -0.112,0 -0.224,-0.112 -0.336,-0.112 -0.114,0 -0.226,0 -0.226,0 0,0.336 0,0.673 0,0.896 -0.112,0 -0.224,0 -0.336,-0.112 z m 0.336,-2.016 c 0,0.224 0,0.447 0,0.783 h 0.112 c 0.114,0 0.226,0 0.338,0 0,0 0,0 0,-0.111 0.112,0 0.112,-0.112 0.112,-0.112 0,-0.112 0,-0.224 -0.112,-0.336 0,0 0,0 -0.112,-0.112 0,0 -0.112,0 -0.226,-0.111 h -0.112 z m 1.122,-0.112 c 0.112,0 0.224,0 0.336,0.112 0,0.447 0,0.896 0,1.344 0,0.224 0,0.448 0,0.448 0,0.112 0,0.224 0.112,0.336 0,0 0.112,0.112 0.224,0.112 0.112,0 0.112,0 0.226,0 0,-0.112 0,-0.112 0,-0.225 0,-0.111 0,-0.224 0,-0.448 0,-0.447 0,-1.008 0,-1.456 0.112,0 0.224,0.112 0.336,0.112 0,0.448 0,0.896 0,1.344 0,0.337 0,0.561 0,0.673 0,0.111 0,0.224 -0.112,0.336 0,0.112 -0.112,0.112 -0.112,0.112 -0.112,0 -0.226,0.111 -0.338,0 -0.224,0 -0.336,-0.112 -0.336,-0.112 -0.112,-0.112 -0.112,-0.225 -0.224,-0.336 0,-0.112 0,-0.225 -0.112,-0.336 0,-0.112 0,-0.337 0,-0.673 0,-0.448 0,-0.895 0,-1.343 z m 1.571,0.448 c 0.224,0 0.448,0 0.672,0.111 0.112,0.112 0.224,0.112 0.224,0.112 0.112,0.112 0.224,0.112 0.224,0.112 0,0.111 0.112,0.224 0.112,0.336 0,0.112 0,0.224 0,0.336 0,0.112 0,0.224 0,0.336 0,0 -0.112,0.112 -0.224,0.112 0.112,0.112 0.224,0.224 0.224,0.336 0.112,0.112 0.112,0.224 0.112,0.448 0,0.112 0,0.224 0,0.336 -0.112,0.112 -0.112,0.112 -0.224,0.224 h -0.112 c -0.112,0 -0.224,0 -0.448,0 -0.112,-0.111 -0.336,-0.111 -0.56,-0.224 0,-0.783 0,-1.68 0,-2.575 z m 0.336,0.447 c 0,0.225 0,0.448 0,0.673 0.112,0 0.112,0 0.224,0 0.112,0.111 0.224,0.111 0.224,0.111 0.112,0 0.112,0 0.112,-0.111 0.112,0 0.112,-0.112 0.112,-0.225 0,0 0,-0.111 -0.112,-0.111 0,-0.112 0,-0.112 -0.112,-0.225 0,0 -0.112,0 -0.224,0 -0.113,10e-4 -0.113,10e-4 -0.224,-0.112 z m 0,1.121 c 0,0.224 0,0.447 0,0.672 0.112,0 0.224,0 0.336,0.112 0.112,0 0.112,0 0.224,0 0,0 0.112,0 0.112,-0.112 0,0 0,-0.112 0,-0.225 v -0.111 c 0,-0.112 -0.112,-0.112 -0.112,-0.225 0,0 -0.112,0 -0.336,-0.111 0,0 -0.113,0 -0.224,0 z m 1.346,1.456 c 0,-0.896 0,-1.681 0,-2.688 0.112,0.111 0.224,0.111 0.336,0.111 0,0.784 0,1.457 0,2.241 0.224,0 0.448,0.111 0.784,0.224 0,0.112 0,0.225 0,0.448 -0.448,-0.112 -0.784,-0.223 -1.12,-0.336 z m 1.344,0.336 c 0,-0.784 0,-1.792 0,-2.576 0,0 0.112,0 0.224,0 0,0.896 0,1.792 0,2.688 -0.112,10e-4 -0.224,-0.112 -0.224,-0.112 z m 1.57,-0.56 c 0.112,0.112 0.224,0.225 0.336,0.337 -0.112,0.224 -0.112,0.447 -0.224,0.563 -0.112,0.112 -0.224,0.112 -0.448,0.112 -0.224,-0.112 -0.336,-0.229 -0.561,-0.564 -0.112,-0.224 -0.112,-0.56 -0.112,-1.008 0,-0.448 0,-0.784 0.112,-1.009 0.224,-0.224 0.336,-0.224 0.561,-0.224 0.224,0.112 0.336,0.224 0.448,0.448 0.112,0.112 0.224,0.336 0.224,0.56 -0.112,0 -0.224,0 -0.336,0 0,-0.111 0,-0.224 -0.112,-0.336 -0.112,-0.111 -0.112,-0.111 -0.224,-0.224 -0.112,0 -0.224,0 -0.224,0.112 -0.112,0.224 -0.112,0.336 -0.112,0.672 0,0.336 0,0.672 0.112,0.784 0,0.224 0.112,0.224 0.224,0.336 0.112,0 0.112,0 0.224,-0.112 0.112,-0.11 0.112,-0.223 0.112,-0.447 z m 17.267,2.917 c 0.448,0.111 0.898,0.336 1.458,0.448 0.224,0.111 0.448,0.111 0.561,0.224 0.224,0.112 0.336,0.225 0.448,0.336 0.114,0.225 0.226,0.336 0.226,0.672 0.112,0.225 0.112,0.452 0.112,0.677 0,0.336 0,0.672 -0.112,0.896 -0.112,0.225 -0.226,0.336 -0.338,0.448 0.226,0.112 0.338,0.336 0.45,0.672 0.112,0.337 0.224,0.673 0.224,1.009 0,0.336 -0.112,0.56 -0.112,0.784 -0.112,0.34 -0.224,0.452 -0.336,0.676 -0.114,0.112 -0.338,0.112 -0.45,0.112 -0.224,0 -0.448,-0.112 -0.896,-0.225 -0.448,-0.111 -0.786,-0.224 -1.234,-0.34 -10e-4,-2.129 -10e-4,-4.257 -10e-4,-6.389 z m -22.762,-1.009 c 0.112,0.112 0.226,0.112 0.338,0.225 0,0.336 -0.112,0.448 -0.226,0.56 -0.112,0.112 -0.224,0.112 -0.448,0.112 -0.224,0 -0.336,-0.224 -0.448,-0.448 -0.224,-0.336 -0.224,-0.672 -0.224,-1.12 0,-0.452 0,-0.676 0.224,-0.899 0.112,-0.225 0.224,-0.337 0.561,-0.225 0.112,0 0.336,0.112 0.45,0.448 0,0.112 0.112,0.224 0.112,0.452 -0.112,0 -0.226,0 -0.338,0.111 0,-0.224 0,-0.34 -0.112,-0.34 0,-0.111 -0.112,-0.224 -0.224,-0.224 -0.112,0 -0.224,0 -0.224,0.112 -0.112,0.111 -0.112,0.34 -0.112,0.676 0,0.336 0,0.56 0.112,0.672 0,0.225 0.112,0.336 0.224,0.336 0.112,0 0.224,0 0.224,-0.111 0.111,0 0.111,-0.112 0.111,-0.337 z m 2.019,1.568 c -0.112,-0.111 -0.224,-0.111 -0.336,-0.224 0,-0.112 -0.112,-0.336 -0.112,-0.561 -0.224,-0.111 -0.448,-0.111 -0.672,-0.224 0,0.224 0,0.448 -0.112,0.56 -0.112,0 -0.224,0 -0.336,-0.111 0.224,-0.784 0.448,-1.568 0.672,-2.356 0.112,0 0.224,0 0.336,0 0.224,1.012 0.336,1.909 0.56,2.916 z m -0.56,-1.231 c -0.112,-0.337 -0.112,-0.673 -0.224,-1.121 -0.112,0.337 -0.112,0.673 -0.224,1.009 0.224,0 0.335,0 0.448,0.112 z m 0.784,1.231 c 0,-0.896 0,-1.792 0,-2.576 0.112,0 0.224,0 0.338,0 0,0.784 0,1.456 0,2.24 0.224,0 0.56,0.112 0.784,0.225 0,0.111 0,0.224 0,0.448 -0.336,-0.112 -0.784,-0.224 -1.122,-0.337 z m 1.346,0.337 c 0,-0.785 0,-1.681 0,-2.577 0.112,0 0.224,0 0.336,0.112 0,0.672 0,1.456 0,2.128 0.224,0.112 0.562,0.225 0.786,0.225 0,0.224 0,0.336 0,0.448 -0.338,-0.112 -0.786,-0.224 -1.122,-0.336 z m 19.845,0.448 c 0,0.448 0,0.896 0,1.461 0.226,0 0.338,0 0.562,0.111 0.224,0 0.448,0.112 0.448,0.112 0.112,0 0.224,-0.112 0.336,-0.224 0,0 0.112,-0.225 0.112,-0.448 0,-0.116 0,-0.34 -0.112,-0.452 0,-0.112 -0.112,-0.225 -0.224,-0.336 -0.112,0 -0.336,-0.112 -0.672,-0.112 -0.112,-0.112 -0.224,-0.112 -0.45,-0.112 z m 0,2.468 c 0,0.56 0,1.12 0,1.681 0.226,0.111 0.45,0.111 0.674,0.224 0.336,0.112 0.448,0.112 0.56,0.112 0.112,0 0.112,-0.112 0.224,-0.225 0.112,-0.111 0.112,-0.224 0.112,-0.448 0,-0.224 0,-0.336 -0.112,-0.56 0,-0.112 -0.112,-0.225 -0.224,-0.336 -0.112,-0.112 -0.336,-0.225 -0.56,-0.336 -0.224,10e-4 -0.448,10e-4 -0.674,-0.112 z m 2.804,0.448 c 0,-0.673 0,-1.232 0.112,-1.681 0.112,-0.224 0.224,-0.563 0.336,-0.788 0.112,-0.224 0.336,-0.336 0.448,-0.448 0.224,-0.111 0.562,-0.111 0.786,0 0.56,0.112 1.008,0.448 1.232,1.236 0.336,0.672 0.562,1.568 0.562,2.576 0,1.009 -0.226,1.797 -0.45,2.356 -0.336,0.448 -0.784,0.673 -1.344,0.448 -0.45,-0.112 -0.898,-0.56 -1.234,-1.232 -0.336,-0.675 -0.448,-1.459 -0.448,-2.467 z m 0.672,0.112 c 0,0.673 0.112,1.345 0.336,1.793 0.224,0.34 0.45,0.676 0.674,0.676 0.336,0.112 0.56,0 0.784,-0.336 0.112,-0.34 0.224,-0.9 0.224,-1.572 0,-0.784 -0.112,-1.345 -0.224,-1.792 -0.224,-0.336 -0.448,-0.673 -0.784,-0.673 -0.224,-0.111 -0.45,0 -0.674,0.337 -0.223,0.335 -0.336,0.783 -0.336,1.567 z m 3.029,4.037 c 0.336,-1.008 0.784,-2.021 1.12,-3.028 -0.336,-1.12 -0.672,-2.24 -1.12,-3.477 0.336,0.112 0.672,0.228 0.896,0.228 0.224,0.784 0.448,1.568 0.672,2.353 0.336,-0.672 0.562,-1.232 0.786,-1.904 0.224,0.112 0.561,0.112 0.784,0.225 -0.336,0.896 -0.672,1.904 -1.12,2.8 0.448,1.349 0.784,2.469 1.232,3.701 -0.224,0 -0.56,-0.112 -0.896,-0.225 -0.224,-0.784 -0.45,-1.568 -0.786,-2.464 -0.224,0.672 -0.448,1.344 -0.784,2.016 -0.224,-10e-4 -0.56,-0.113 -0.784,-0.225 z m -58.753,-21.191 c 0,0.448 0,1.008 0,1.568 0.112,0 0.224,0 0.448,0.112 0.224,0 0.448,0.111 0.56,0 0.112,0 0.112,-0.112 0.224,-0.225 0,-0.111 0,-0.224 0,-0.336 0,-0.224 0,-0.448 -0.112,-0.56 0,-0.112 -0.112,-0.225 -0.224,-0.337 -0.112,0 -0.224,-0.111 -0.56,-0.111 -0.112,-0.111 -0.224,-0.111 -0.336,-0.111 z m 2.466,2.468 c 0,-0.564 0.112,-1.013 0.224,-1.349 0,-0.224 0.112,-0.448 0.336,-0.672 0.112,-0.112 0.224,-0.225 0.448,-0.336 0.224,-0.112 0.45,-0.112 0.786,0 0.448,0.111 0.896,0.448 1.232,1.12 0.224,0.56 0.448,1.236 0.448,2.132 0,0.896 -0.112,1.681 -0.448,2.017 -0.336,0.448 -0.784,0.561 -1.232,0.448 -0.562,-0.225 -1.01,-0.561 -1.346,-1.12 -0.336,-0.56 -0.448,-1.344 -0.448,-2.24 z m 0.784,0.224 c 0,0.561 0,1.12 0.224,1.456 0.224,0.336 0.45,0.561 0.786,0.673 0.224,0.111 0.448,0 0.672,-0.225 0.224,-0.336 0.224,-0.784 0.224,-1.456 0,-0.561 0,-1.124 -0.224,-1.46 -0.224,-0.336 -0.448,-0.561 -0.672,-0.673 -0.336,0 -0.562,0.112 -0.786,0.337 -0.111,0.224 -0.224,0.672 -0.224,1.348 z m 3.253,3.696 c 0,-1.904 0,-3.696 0,-5.492 0.224,0 0.448,0.111 0.784,0.111 0,1.572 0,3.141 0,4.597 0.56,0.225 1.122,0.337 1.794,0.561 0,0.336 0,0.676 0,0.9 -0.896,-0.225 -1.682,-0.448 -2.578,-0.677 z m 3.026,0.788 c 0,-1.796 0,-3.7 0,-5.608 0.224,0.112 0.448,0.112 0.672,0.224 0,1.908 0,3.813 0,5.609 -0.224,0 -0.448,-0.112 -0.672,-0.225 z m 3.701,-1.011 c 0.224,0.224 0.448,0.452 0.672,0.564 -0.112,0.56 -0.224,1.008 -0.56,1.231 -0.224,0.225 -0.56,0.336 -0.896,0.225 -0.45,-0.112 -0.898,-0.561 -1.122,-1.12 -0.336,-0.677 -0.56,-1.349 -0.56,-2.244 0,-0.896 0.224,-1.681 0.56,-2.129 0.224,-0.34 0.672,-0.452 1.122,-0.34 0.448,0.116 0.784,0.34 1.121,0.9 0.112,0.224 0.224,0.672 0.336,1.12 -0.224,0 -0.448,0 -0.672,0.111 -0.112,-0.336 -0.112,-0.672 -0.336,-0.784 -0.112,-0.224 -0.224,-0.447 -0.448,-0.447 -0.226,-0.112 -0.45,0 -0.674,0.336 -0.112,0.224 -0.224,0.672 -0.224,1.344 0,0.672 0.112,1.232 0.224,1.568 0.224,0.34 0.448,0.564 0.674,0.676 0.224,0 0.336,0 0.448,-0.224 0.223,-0.112 0.223,-0.335 0.335,-0.787 z m 1.344,2.468 c 0,-1.904 0,-3.813 0,-5.718 0.898,0.225 1.683,0.448 2.581,0.784 0,0.336 0,0.561 0,0.896 -0.56,-0.112 -1.234,-0.336 -1.906,-0.561 0,0.448 0,0.896 0,1.345 0.56,0.112 1.234,0.336 1.794,0.561 0,0.224 0,0.56 0,0.899 -0.56,-0.111 -1.234,-0.34 -1.794,-0.563 0,0.563 0,1.124 0,1.572 0.672,0.224 1.346,0.447 2.018,0.56 0,0.336 0,0.672 0,1.009 -0.899,-0.224 -1.795,-0.56 -2.693,-0.784 z"
   inkscape:connector-curvature="0"
   style="fill:#fefefe" />
		</g></svg>